<?xml version="1.0" encoding="UTF-8" standalone="no"?>
<svg
   xmlns:dc="http://purl.org/dc/elements/1.1/"
   xmlns:cc="http://creativecommons.org/ns#"
   xmlns:rdf="http://www.w3.org/1999/02/22-rdf-syntax-ns#"
   xmlns:svg="http://www.w3.org/2000/svg"
   xmlns="http://www.w3.org/2000/svg"
   xmlns:sodipodi="http://sodipodi.sourceforge.net/DTD/sodipodi-0.dtd"
   xmlns:inkscape="http://www.inkscape.org/namespaces/inkscape"
   version="1.1"
   id="Layer_1"
   x="0px"
   y="0px"
   width="500px"
   height="500px"
   viewBox="0 0 500 500"
   enable-background="new 0 0 500 500"
   xml:space="preserve"
   sodipodi:docname="CryptoCurrencyLogo.svg"
   inkscape:version="1.0.2 (e86c870879, 2021-01-15)"><metadata
   id="metadata13"><rdf:RDF><cc:Work
       rdf:about=""><dc:format>image/svg+xml</dc:format><dc:type
         rdf:resource="http://purl.org/dc/dcmitype/StillImage" /><dc:title></dc:title></cc:Work></rdf:RDF></metadata><defs
   id="defs11" /><sodipodi:namedview
   pagecolor="#ffffff"
   bordercolor="#666666"
   borderopacity="1"
   objecttolerance="10"
   gridtolerance="10"
   guidetolerance="10"
   inkscape:pageopacity="0"
   inkscape:pageshadow="2"
   inkscape:window-width="1392"
   inkscape:window-height="907"
   id="namedview9"
   showgrid="false"
   inkscape:zoom="1.19"
   inkscape:cx="150.04396"
   inkscape:cy="203.55673"
   inkscape:window-x="159"
   inkscape:window-y="77"
   inkscape:window-maximized="0"
   inkscape:current-layer="Layer_1" />
<path
   fill="#2AB89A"
   d="M465.219,245.949c0,120.987-99.403,219.067-222.03,219.067c-122.629,0-222.037-98.08-222.037-219.067  c0-120.989,99.408-219.069,222.037-219.069C365.815,26.88,465.219,124.959,465.219,245.949z"
   id="path2"
   style="fill:#e9cb40;fill-opacity:1" />


<path
   fill="none"
   stroke="#4875ba"
   stroke-miterlimit="10"
   d="M 362.58664,172.72172"
   id="path4" /><g
   aria-label="c"
   transform="matrix(1.0095928,0.2705196,-0.24762458,0.92414752,0,0)"
   id="text840"
   style="font-style:normal;font-weight:normal;font-size:457.922px;line-height:1.25;font-family:sans-serif;fill:#000000;fill-opacity:1;stroke:none;stroke-width:11.4481"><path
     d="m 382.48739,59.614933 v 65.289657 q -16.32241,-11.17973 -32.86842,-16.54601 -16.32242,-5.36627 -33.9864,-5.36627 -33.53921,0 -52.32117,19.67634 -18.55836,19.45274 -18.55836,54.55711 0,35.10437 18.55836,54.78071 18.78196,19.45274 52.32117,19.45274 18.78196,0 35.55156,-5.58987 16.9932,-5.58987 31.30326,-16.54601 v 65.51325 q -18.78196,6.93144 -38.2347,10.28536 -19.22914,3.57752 -38.68188,3.57752 -67.74921,0 -105.9839,-34.65719 -38.2347,-34.88077 -38.2347,-96.81651 0,-61.93574 38.2347,-96.592923 38.23469,-34.880777 105.9839,-34.880777 19.67633,0 38.68188,3.577516 19.22915,3.353921 38.2347,10.285357 z"
     style="font-weight:bold;fill:#ffffff;fill-opacity:1;stroke-width:11.4481"
     id="path920" /></g><rect
   style="fill:#ffffff;fill-opacity:1;stroke:none;stroke-width:2.93074"
   id="rect842"
   width="29.887573"
   height="62.120937"
   x="232.4836"
   y="-13.94279"
   transform="matrix(0.92516567,0.37956355,-0.17238105,0.98503034,0,0)" /><rect
   style="fill:#ffffff;fill-opacity:1;stroke:none;stroke-width:2.80405"
   id="rect844"
   width="29.053598"
   height="59.877399"
   x="311.2612"
   y="-34.463154"
   transform="matrix(0.91050227,0.41350407,-0.15615135,0.98773314,0,0)" /><rect
   style="fill:#ffffff;fill-opacity:1;stroke:none;stroke-width:3.02966"
   id="rect846"
   width="27.7253"
   height="53.921951"
   x="212.41443"
   y="237.26077"
   transform="matrix(0.91709421,0.39867056,-0.16295239,0.98663393,0,0)" /><rect
   style="fill:#ffffff;fill-opacity:1;stroke:none;stroke-width:2.82631"
   id="rect842-3"
   width="31.626867"
   height="54.595112"
   x="294.52182"
   y="243.96628"
   transform="matrix(0.93345683,0.35868976,-0.18366597,0.98298871,0,0)" /></svg>
